<?xml version="1.0" encoding="utf-8"?>
<!-- Generator: Adobe Illustrator 22.1.0, SVG Export Plug-In . SVG Version: 6.00 Build 0)  -->
<svg version="1.1" xmlns="http://www.w3.org/2000/svg" xmlns:xlink="http://www.w3.org/1999/xlink" x="0px" y="0px"
	 viewBox="0 0 477.2 232.2" style="enable-background:new 0 0 477.2 232.2;" xml:space="preserve">
<style type="text/css">
	.st0{fill:#FFFFFF;}
</style>
<g id="Ebene_1">
</g>
<g id="Seite_1">
	<g>
		<g>
			<path class="st0" d="M212.9,193.5v-30.1h3.6v12.2c1.2-1.9,3.4-3.3,6.8-3.3c6.2,0,8.7,3,8.7,10.8c0,7.7-2.8,10.7-8.8,10.7
				c-3.5,0-5.6-1.3-6.8-3.2v2.8H212.9z M228.4,183.1c0-6-1.4-7.9-5.9-7.9c-3.9,0-6,1.9-6,7.9c0,5.9,2.1,7.8,6,7.8
				C227,190.9,228.4,188.9,228.4,183.1z"/>
			<path class="st0" d="M237.1,199.8c3.5-0.1,5.3-1.9,6.7-5.7l0.3-0.8l-9.2-20.6h4.1l7,16.4l5.8-16.4h3.9l-8.3,21.7
				c-2,5.2-4.9,8.3-10.5,8.4V199.8z"/>
			<path class="st0" d="M290,193.5l-9.2-15l-4.7,4.7v10.3h-4v-30.1h4v15.2l13.5-15.2h5l-10.9,12l11.1,18.2H290z"/>
			<path class="st0" d="M320.6,193.5l-2.7-8.1h-12.2l-2.8,8.1h-4.2l10.9-30.1h4.7l10.9,30.1H320.6z M311.7,167.6l-5.1,14.7h10.3
				L311.7,167.6z"/>
			<path class="st0" d="M329.5,193.5v-30.1H350v3.2h-16.5v10h15.2v3.2h-15.2v10.6h16.9v3.2H329.5z"/>
			<path class="st0" d="M359.1,180.2v13.3h-4v-30.1h20.3v3.2h-16.3V177h15.3v3.2H359.1z"/>
			<path class="st0" d="M379.7,193.5v-30.1h20.5v3.2h-16.5v10h15.2v3.2h-15.2v10.6h16.9v3.2H379.7z"/>
			<path class="st0" d="M423,193.5v-5.4c0-5.2-1.9-7.6-7.4-7.6h-6.4v13h-4v-30.1h11.8c7.2,0,10.3,2.1,10.3,8.5
				c0,4.1-1.5,6.3-4.5,7.4c2.7,1.3,4.1,4.1,4.1,8.5v5.7H423z M416.9,177.5c5,0,6.4-1.5,6.4-5.5c0-4.1-1.4-5.4-6.4-5.4h-7.7v10.9
				H416.9z"/>
		</g>
		<path class="st0" d="M158.1,147.2L172,82.6c1.8-8.2,5.9-11.8,14.2-11.8h37.7c14.1,0,19.3,8.1,19.3,19.5c0,2.1-0.2,5.3-0.8,8.5
			c-2.6,15.4-8.2,23.9-26.3,23.9h-32.8l-5.3,24.4H158.1z M209.1,107.5c8.3,0,11.3-2.2,13-9.7c0.4-2.1,0.7-4.1,0.7-5.3
			c0-4.5-2.6-6.3-9.1-6.3h-17.4c-3.9,0-5.4,1.3-6.3,5.1l-3.4,16.3H209.1z"/>
		<path class="st0" d="M308.7,138.4c-3.4,5.9-6.3,9.7-15,9.7c-8.8,0-10-3.8-10.9-9.7l-6.4-43.8c-0.2-1.3-0.4-2.6-1.1-2.6
			c-1.1,0-1.5,1.9-1.7,2.4l-10.8,52.9H243l14.1-65.4c2.2-10.3,11.5-11.8,17.3-11.8c7.7,0,13.3,2.5,14.7,11.2l6.6,44.1
			c0.2,1.4,0.7,3.2,1.5,3.2c0.9,0,1.9-1.7,2.6-3.2l25.2-44.1c5-8.6,11.9-11.2,19.5-11.2c10.6,0,14.4,4,14.4,8.8c0,1-0.1,2-0.3,2.9
			l-14.1,65.4h-19.8l12-52.9c0.1-0.4,0.1-0.8,0.1-1.1c0-0.9-0.3-1.3-0.8-1.3c-0.6,0-1.3,1.1-2.2,2.6L308.7,138.4z"/>
		<path class="st0" d="M360.3,131.9H403c4.3,0,6.7-2.3,6.7-6.7c0-2-1.1-3.6-4.7-4.8l-27.1-8.9c-7.2-2.4-10.2-7.6-10.2-15.3
			c0-2.3,0.2-4.7,0.7-7.2c2-11.6,8.2-18.2,22-18.2h47.6l-3.3,15.3h-39.9c-4.3,0-6.6,2.5-6.6,6.4c0,2.2,1.4,3.8,5,5l24.3,7.9
			c8.6,2.7,12.9,7.3,12.9,16c0,2-0.2,4.1-0.7,6.5c-2.2,12.2-7.6,19.2-21.8,19.2H357L360.3,131.9z"/>
		<path class="st0" d="M74.3,68.7H62.6c-3.3,0-6.1,2.3-6.8,5.5l-2.2,10.2c-0.9,4.3,2.4,8.3,6.8,8.3h11.7c3.3,0,6.1-2.3,6.8-5.5
			L81,77C81.9,72.7,78.6,68.7,74.3,68.7z"/>
		<path class="st0" d="M112.1,38.5h-11.7c-3.3,0-6.1,2.3-6.8,5.5l-2.2,10.2c-0.9,4.3,2.4,8.3,6.8,8.3h11.7c3.3,0,6.1-2.3,6.8-5.5
			l2.1-10.2C119.8,42.5,116.5,38.5,112.1,38.5z"/>
		<path class="st0" d="M82.5,52.2h-6.4c-1.8,0-3.3,1.3-3.7,3l-1.2,5.6c-0.5,2.4,1.3,4.6,3.7,4.6h6.5c1.8,0,3.4-1.3,3.7-3l1.1-5.6
			C86.7,54.4,84.9,52.2,82.5,52.2z"/>
		<path class="st0" d="M74.9,36.6h-6.4c-1.8,0-3.3,1.3-3.7,3l-1.2,5.6c-0.5,2.4,1.3,4.6,3.7,4.6h6.5c1.8,0,3.4-1.3,3.7-3l1.1-5.6
			C79.1,38.8,77.3,36.6,74.9,36.6z"/>
		<path class="st0" d="M50.6,52.2h-6.4c-1.8,0-3.3,1.3-3.7,3l-1.2,5.6c-0.5,2.4,1.3,4.6,3.7,4.6h6.5c1.8,0,3.4-1.3,3.7-3l1.1-5.6
			C54.8,54.4,53,52.2,50.6,52.2z"/>
		<path class="st0" d="M130.2,70.8h-15.1c1.6,1.9,2.3,4.4,1.8,7l-1.7,8.3h1.1c15.1,0,20.4,2.8,20.4,13.3c0,2.7-0.6,6.9-1.3,10.7
			c-4,18.5-11.2,21.8-28.9,21.8H102c-3.3,0-4.6-0.9-4.6-3.2c0-0.7,0.1-1.4,0.3-2.3l6.4-29.7h-12c-3,0-5.6-1.6-7.1-3.9l-9.1,42.6
			c-0.2,1.1-0.3,2.2-0.3,3.2c0,5.2,3.4,8.5,9.5,8.5H117c27,0,34.4-12.3,38.7-36c0.9-4.6,1.3-8.7,1.3-13.1
			C157,81.8,150.3,70.8,130.2,70.8z"/>
	</g>
</g>
</svg>
